<svg enable-background="new 0 0 24 24" height="512" viewBox="0 0 24 24" width="512" xmlns="http://www.w3.org/2000/svg"><path d="m21.5 21h-19c-1.379 0-2.5-1.122-2.5-2.5v-13c0-1.378 1.121-2.5 2.5-2.5h19c1.379 0 2.5 1.122 2.5 2.5v13c0 1.378-1.121 2.5-2.5 2.5zm-19-17c-.827 0-1.5.673-1.5 1.5v13c0 .827.673 1.5 1.5 1.5h19c.827 0 1.5-.673 1.5-1.5v-13c0-.827-.673-1.5-1.5-1.5z"/><path d="m12 15c-1.654 0-3-1.346-3-3s1.346-3 3-3 3 1.346 3 3-1.346 3-3 3zm0-5c-1.103 0-2 .897-2 2s.897 2 2 2 2-.897 2-2-.897-2-2-2z"/><path d="m12 18c-3.309 0-6-2.691-6-6s2.691-6 6-6 6 2.691 6 6v1c0 1.103-.897 2-2 2s-2-.897-2-2v-3.5c0-.276.224-.5.5-.5s.5.224.5.5v3.5c0 .551.448 1 1 1s1-.449 1-1v-1c0-2.757-2.243-5-5-5s-5 2.243-5 5 2.243 5 5 5c.276 0 .5.224.5.5s-.224.5-.5.5z"/></svg>